<?xml version="1.0" encoding="UTF-8" standalone="no"?>
<!DOCTYPE svg PUBLIC "-//W3C//DTD SVG 1.1//EN" "http://www.w3.org/Graphics/SVG/1.1/DTD/svg11.dtd">
<svg width="100%" height="100%" viewBox="0 0 51 38" version="1.1" xmlns="http://www.w3.org/2000/svg" xmlns:xlink="http://www.w3.org/1999/xlink" xml:space="preserve" xmlns:serif="http://www.serif.com/" style="fill-rule:evenodd;clip-rule:evenodd;stroke-linejoin:round;stroke-miterlimit:2;">
    <g transform="matrix(1,0,0,1,-696.678,-1657)">
        <g transform="matrix(1,0,0,1,-35.7196,-164.386)">
            <path d="M745.967,1855.32C743.737,1855.82 741.644,1856.08 739.773,1856.08C730.404,1856.08 729.961,1849.39 738.445,1840.91C738.435,1840.65 738.43,1840.4 738.43,1840.14C738.43,1829.79 746.614,1821.38 756.695,1821.38C760.448,1821.38 763.938,1822.55 766.841,1824.54C769.962,1823.67 772.887,1823.19 775.409,1823.19C785.243,1823.19 785.243,1830.56 775.409,1839.63C775.261,1839.77 775.112,1839.91 774.961,1840.04C774.961,1840.08 774.961,1840.11 774.961,1840.14C774.961,1850.49 766.777,1858.9 756.695,1858.9C752.688,1858.9 748.98,1857.57 745.967,1855.32ZM742.42,1851.84C741.053,1850.08 739.986,1848.07 739.301,1845.88C734.88,1851.39 735.773,1853.76 742.42,1851.84ZM743.452,1836.53C743.155,1837.68 742.996,1838.89 742.996,1840.14C742.996,1840.37 743.001,1840.59 743.011,1840.81C743.211,1845.18 745.353,1849.03 748.568,1851.47C755.09,1849.09 765.156,1843.97 770.719,1838.24C770.719,1833.34 767.947,1830.92 764.239,1828.4C763.147,1827.66 761.946,1827.07 760.665,1826.67C759.408,1826.28 758.076,1826.07 756.695,1826.07C750.35,1826.07 745.006,1830.51 743.452,1836.53ZM770.029,1827.33C772.16,1829.66 773.716,1832.56 774.464,1835.78C779.161,1829.22 778.264,1825.26 770.954,1827.3C770.664,1827.38 770.344,1827.31 770.029,1827.33ZM769.828,1844.15C765.244,1848.78 758.961,1852.05 752.268,1853.46C753.657,1853.94 755.146,1854.21 756.695,1854.21C762.898,1854.21 768.144,1849.97 769.828,1844.15Z" style="fill:white;"/>
            <g transform="matrix(0.79555,0,0,0.816997,148.853,337.999)">
                <path d="M764.053,1825.01L764.053,1830.48C759.562,1830.48 755.922,1834.12 755.922,1838.62L750.453,1838.62C750.453,1831.1 756.542,1825.01 764.053,1825.01Z" style="fill:white;"/>
            </g>
        </g>
    </g>
</svg>
