<?xml version="1.0" encoding="UTF-8" standalone="no"?>
<!DOCTYPE svg PUBLIC "-//W3C//DTD SVG 1.1//EN" "http://www.w3.org/Graphics/SVG/1.1/DTD/svg11.dtd">
<svg width="100%" height="100%" viewBox="0 0 37 35" version="1.1" xmlns="http://www.w3.org/2000/svg" xmlns:xlink="http://www.w3.org/1999/xlink" xml:space="preserve" xmlns:serif="http://www.serif.com/" style="fill-rule:evenodd;clip-rule:evenodd;stroke-linejoin:round;stroke-miterlimit:2;">
    <g transform="matrix(1,0,0,1,-907.442,-1043.31)">
        <g transform="matrix(1,0,0,1,20.3033,33.4432)">
            <path d="M895.2,1019.22L895.2,1015.81C895.2,1012.52 901.588,1009.87 909.468,1009.87C917.346,1009.87 923.737,1012.52 923.737,1015.81L923.737,1030.08C923.737,1032.43 920.446,1034.47 915.675,1035.43L915.675,1038.85C915.675,1042.13 909.287,1044.79 901.407,1044.79C893.526,1044.79 887.138,1042.13 887.138,1038.85L887.138,1024.58C887.138,1022.22 890.429,1020.19 895.2,1019.22ZM913.297,1035C912.733,1035.35 912.082,1035.68 911.355,1035.97C908.785,1037.02 905.277,1037.66 901.407,1037.66C896.442,1037.66 892.072,1036.6 889.516,1035L889.516,1038.85C889.516,1039.76 893.604,1042.41 901.407,1042.41C909.209,1042.41 913.297,1039.76 913.297,1038.85L913.297,1035ZM902.48,1035.26C906.207,1035.14 909.002,1034.41 910.815,1033.62C912.458,1032.9 913.297,1032.13 913.297,1031.71L913.297,1027.86C912.734,1028.22 912.082,1028.54 911.356,1028.84C908.786,1029.88 905.277,1030.52 901.407,1030.52C900.106,1030.52 898.846,1030.45 897.649,1030.32C896.798,1030.22 895.979,1030.09 895.2,1029.93C892.89,1029.47 890.927,1028.75 889.516,1027.86L889.516,1031.71C889.516,1032.63 893.604,1035.28 901.407,1035.28C901.773,1035.28 902.13,1035.27 902.48,1035.26ZM895.2,1027.51C895.925,1027.67 896.718,1027.81 897.578,1027.92C898.734,1028.06 900.011,1028.15 901.407,1028.15C901.773,1028.15 902.13,1028.14 902.48,1028.13C906.175,1028.01 908.969,1027.28 910.791,1026.49C912.444,1025.77 913.297,1025 913.297,1024.58C913.297,1023.96 911.462,1022.57 907.903,1021.72C906.442,1021.37 904.69,1021.11 902.655,1021.03C902.25,1021.02 901.834,1021.01 901.407,1021.01C900.011,1021.01 898.734,1021.1 897.578,1021.24C896.718,1021.35 895.925,1021.49 895.2,1021.65C891.451,1022.5 889.516,1023.95 889.516,1024.58C889.516,1025.21 891.451,1026.66 895.2,1027.51ZM915.675,1033.01C919.423,1032.16 921.359,1030.71 921.359,1030.08L921.359,1026.23C919.948,1027.11 917.985,1027.83 915.675,1028.3L915.675,1033.01ZM915.675,1025.87C919.423,1025.03 921.359,1023.58 921.359,1022.94L921.359,1019.09C919.545,1020.23 916.819,1021.09 913.615,1021.5C914.922,1022.4 915.675,1023.45 915.675,1024.58L915.675,1025.87ZM908.22,1019.35C908.625,1019.37 909.041,1019.38 909.468,1019.38C917.204,1019.38 921.359,1016.73 921.359,1015.81C921.359,1014.89 917.271,1012.24 909.468,1012.24C901.666,1012.24 897.578,1014.9 897.578,1015.81C897.578,1016.42 899.415,1017.82 902.975,1018.67C904.436,1019.02 906.187,1019.28 908.22,1019.35Z" style="fill:rgb(226,222,227);"/>
        </g>
    </g>
</svg>
