<?xml version="1.0" encoding="UTF-8" standalone="no"?>
<!DOCTYPE svg PUBLIC "-//W3C//DTD SVG 1.1//EN" "http://www.w3.org/Graphics/SVG/1.1/DTD/svg11.dtd">
<svg width="100%" height="100%" viewBox="0 0 1080 180" version="1.1" xmlns="http://www.w3.org/2000/svg" xmlns:xlink="http://www.w3.org/1999/xlink" xml:space="preserve" xmlns:serif="http://www.serif.com/" style="fill-rule:evenodd;clip-rule:evenodd;stroke-linejoin:round;stroke-miterlimit:2;">
    <g transform="matrix(1,0,0,1,0,-1740.48)">
        <g transform="matrix(1.01516,0,0,1.01516,-80.0717,-25.7503)">
            <circle cx="610.811" cy="1810.66" r="70.811" style="fill:white;"/>
        </g>
        <path d="M670.519,1794.28L1080,1794.28L1080,1920L0,1920L0,1794.28L409.481,1794.28C432.041,1794.28 450.969,1809.96 455.954,1831C456.076,1831.59 456.204,1832.18 456.338,1832.77C465.038,1870.94 499.215,1899.45 540,1899.45C580.785,1899.45 614.962,1870.94 623.662,1832.77C623.796,1832.18 623.924,1831.59 624.046,1831C629.031,1809.96 647.959,1794.28 670.519,1794.28Z" style="fill:white;"/>
    </g>
</svg>
