<?xml version="1.0" encoding="UTF-8" standalone="no"?>
<!DOCTYPE svg PUBLIC "-//W3C//DTD SVG 1.1//EN" "http://www.w3.org/Graphics/SVG/1.1/DTD/svg11.dtd">
<svg width="100%" height="100%" viewBox="0 0 47 46" version="1.1" xmlns="http://www.w3.org/2000/svg" xmlns:xlink="http://www.w3.org/1999/xlink" xml:space="preserve" xmlns:serif="http://www.serif.com/" style="fill-rule:evenodd;clip-rule:evenodd;stroke-linejoin:round;stroke-miterlimit:2;">
    <g transform="matrix(1,0,0,1,-993.539,-154.802)">
        <g transform="matrix(1.21066,0,0,1.21066,-227.6,45.2602)">
            <path d="M1033.09,123.995L1033.09,128.353L1022.38,128.353L1022.3,123.95L1017.79,121.345L1014.01,123.524L1008.65,114.245L1012.56,111.977L1012.56,106.84L1008.65,104.588L1014.01,95.31L1018.04,97.635L1022.38,95.132L1022.38,90.481L1033.09,90.481L1033.09,95.132L1037.42,97.635L1041.45,95.31L1046.81,104.588L1042.91,106.84L1042.91,111.977L1046.81,114.245L1041.45,123.524L1037.6,121.39L1033.09,123.995ZM1035.9,116.555L1040.25,119.064L1042.34,115.43L1037.95,112.896C1038.29,111.85 1038.48,110.735 1038.48,109.577C1038.48,109.529 1038.48,109.447 1038.48,109.4C1038.46,108.206 1038.24,107.059 1037.86,105.99L1042.34,103.404L1040.25,99.77L1035.71,102.386C1034.19,100.699 1032.14,99.496 1029.83,99.037L1029.83,93.757L1025.63,93.757L1025.63,99.037C1023.32,99.496 1021.27,100.699 1019.75,102.386L1015.22,99.77L1013.12,103.404L1017.6,105.99C1017.22,107.059 1017.01,108.206 1016.99,109.4C1016.99,109.447 1016.99,109.529 1016.99,109.577C1016.99,110.735 1017.17,111.85 1017.51,112.896L1013.12,115.43L1015.22,119.064L1019.56,116.555C1020.32,117.435 1021.2,118.202 1022.21,118.792C1023.2,119.376 1024.47,119.886 1025.63,120.117L1025.63,125.077L1029.83,125.077L1029.83,120.117C1031,119.886 1032.09,119.466 1033.09,118.892C1034.09,118.292 1035.15,117.435 1035.9,116.555Z" style="fill:white;"/>
        </g>
        <g transform="matrix(1.18663,0,0,1.18663,-191.651,48.8852)">
            <path d="M1018.25,101.69C1022.06,101.69 1025.14,104.776 1025.14,108.578C1025.14,112.38 1022.06,115.467 1018.25,115.467C1014.45,115.467 1011.37,112.38 1011.37,108.578C1011.37,104.776 1014.45,101.69 1018.25,101.69ZM1018.25,105.134C1020.15,105.134 1021.7,106.677 1021.7,108.578C1021.7,110.479 1020.15,112.023 1018.25,112.023C1016.35,112.023 1014.81,110.479 1014.81,108.578C1014.81,106.677 1016.35,105.134 1018.25,105.134Z" style="fill:white;"/>
        </g>
    </g>
</svg>
